<svg width="26" height="31" viewBox="0 0 26 31" fill="none" xmlns="http://www.w3.org/2000/svg">
<path d="M4.3335 11.625C4.3335 7.97161 4.3335 6.14492 5.2854 5.00996C6.2373 3.875 7.76937 3.875 10.8335 3.875H15.1668C18.231 3.875 19.763 3.875 20.7149 5.00996C21.6668 6.14492 21.6668 7.97161 21.6668 11.625V20.444C21.6668 23.9099 21.6668 25.6429 20.7522 26.1729C19.8375 26.7029 18.6947 25.6323 16.4089 23.491L15.6774 22.8057C14.3922 21.6016 13.7495 20.9996 13.0002 20.9996C12.2508 20.9996 11.6082 21.6017 10.3229 22.8057L9.59141 23.491C7.30567 25.6323 6.1628 26.7029 5.24815 26.1729C4.3335 25.6429 4.3335 23.9099 4.3335 20.444V11.625Z" fill="white" stroke="#222222"/>
</svg>
