<svg width="26" height="31" viewBox="0 0 26 31" fill="none" xmlns="http://www.w3.org/2000/svg">
<path d="M4.33301 11.625C4.33301 7.97161 4.33301 6.14492 5.28491 5.00996C6.23681 3.875 7.76888 3.875 10.833 3.875H15.1663C18.2305 3.875 19.7625 3.875 20.7144 5.00996C21.6663 6.14492 21.6663 7.97161 21.6663 11.625V20.444C21.6663 23.9099 21.6663 25.6429 20.7517 26.1729C19.837 26.7029 18.6942 25.6323 16.4084 23.491L15.6769 22.8057C14.3917 21.6016 13.749 20.9996 12.9997 20.9996C12.2503 20.9996 11.6077 21.6017 10.3224 22.8057L9.59093 23.491C7.30518 25.6323 6.16231 26.7029 5.24766 26.1729C4.33301 25.6429 4.33301 23.9099 4.33301 20.444V11.625Z" fill="white" stroke="#222222"/>
</svg>
