<svg width="25" height="31" viewBox="0 0 25 31" fill="none" xmlns="http://www.w3.org/2000/svg">
<path d="M4.1665 11.625C4.1665 7.97161 4.1665 6.14492 5.0818 5.00996C5.99709 3.875 7.47023 3.875 10.4165 3.875H14.5832C17.5294 3.875 19.0026 3.875 19.9179 5.00996C20.8332 6.14492 20.8332 7.97161 20.8332 11.625V20.444C20.8332 23.9099 20.8332 25.6429 19.9537 26.1729C19.0742 26.7029 17.9753 25.6323 15.7775 23.491L15.0741 22.8057C13.8383 21.6016 13.2204 20.9996 12.4998 20.9996C11.7793 20.9996 11.1614 21.6017 9.92558 22.8057L9.2222 23.491C7.02436 25.6323 5.92545 26.7029 5.04598 26.1729C4.1665 25.6429 4.1665 23.9099 4.1665 20.444V11.625Z" stroke="#222222"/>
</svg>
