<svg width="28" height="28" viewBox="0 0 28 28" fill="none" xmlns="http://www.w3.org/2000/svg">
<g filter="url(#filter0_d_171_609)">
<path d="M16.5 0.625C16.5 1.79036 16.7148 2.86458 17.1445 3.84766C17.5742 4.83073 18.1927 5.73568 19 6.5625C19.8073 7.38932 20.4258 8.29427 20.8555 9.27734C21.2852 10.2604 21.5 11.3346 21.5 12.5C21.5 13.1901 21.4121 13.8542 21.2363 14.4922C21.0605 15.1302 20.8066 15.7259 20.4746 16.2793C20.1426 16.8327 19.752 17.3405 19.3027 17.8027C18.8535 18.265 18.349 18.6556 17.7891 18.9746C17.2292 19.2936 16.6302 19.5443 15.9922 19.7266C15.3542 19.9089 14.6901 20 14 20C13.3099 20 12.6458 19.9121 12.0078 19.7363C11.3698 19.5605 10.7741 19.3066 10.2207 18.9746C9.66732 18.6426 9.15951 18.252 8.69727 17.8027C8.23503 17.3535 7.8444 16.849 7.52539 16.2891C7.20638 15.7292 6.95573 15.1302 6.77344 14.4922C6.59115 13.8542 6.5 13.1901 6.5 12.5C6.5 11.9531 6.55859 11.416 6.67578 10.8887C6.79297 10.3613 6.96224 9.85677 7.18359 9.375C7.40495 8.89323 7.67839 8.43425 8.00391 7.99805C8.32943 7.56185 8.69727 7.16797 9.10742 6.81641C9.15299 7.0638 9.21484 7.31771 9.29297 7.57812C9.37109 7.83854 9.46224 8.09896 9.56641 8.35938C9.67057 8.61979 9.79427 8.86719 9.9375 9.10156C10.0807 9.33594 10.2305 9.55404 10.3867 9.75586C10.5169 9.91862 10.6862 10 10.8945 10C11.0703 10 11.2168 9.93815 11.334 9.81445C11.4512 9.69075 11.513 9.54102 11.5195 9.36523C11.5195 9.29362 11.5098 9.22852 11.4902 9.16992C11.4707 9.11133 11.4382 9.05273 11.3926 8.99414C11.2103 8.72721 11.0508 8.46354 10.9141 8.20312C10.7773 7.94271 10.6569 7.67578 10.5527 7.40234C10.4486 7.12891 10.3737 6.8457 10.3281 6.55273C10.2826 6.25977 10.2565 5.95052 10.25 5.625C10.25 4.85026 10.3965 4.12109 10.6895 3.4375C10.9824 2.75391 11.3861 2.1582 11.9004 1.65039C12.4147 1.14258 13.0104 0.742188 13.6875 0.449219C14.3646 0.15625 15.0938 0.00651042 15.875 0H16.5V0.625ZM14 18.75C14.8659 18.75 15.6764 18.5872 16.4316 18.2617C17.1868 17.9362 17.8509 17.4902 18.4238 16.9238C18.9967 16.3574 19.4427 15.6966 19.7617 14.9414C20.0807 14.1862 20.2435 13.3724 20.25 12.5C20.25 11.5169 20.0677 10.6022 19.7031 9.75586C19.3385 8.9095 18.8112 8.14128 18.1211 7.45117C17.2747 6.59831 16.6107 5.65755 16.1289 4.62891C15.6471 3.60026 15.3607 2.48698 15.2695 1.28906C14.7292 1.36068 14.2311 1.52344 13.7754 1.77734C13.3197 2.03125 12.9193 2.35352 12.5742 2.74414C12.2292 3.13477 11.9655 3.57422 11.7832 4.0625C11.6009 4.55078 11.5065 5.07161 11.5 5.625C11.5 6.13281 11.5749 6.5918 11.7246 7.00195C11.8743 7.41211 12.0957 7.82227 12.3887 8.23242C12.5124 8.40169 12.6068 8.57747 12.6719 8.75977C12.737 8.94206 12.7728 9.14388 12.7793 9.36523C12.7793 9.62565 12.7305 9.86979 12.6328 10.0977C12.5352 10.3255 12.3984 10.5241 12.2227 10.6934C12.0469 10.8626 11.8483 10.9993 11.627 11.1035C11.4056 11.2077 11.1615 11.2565 10.8945 11.25C10.5951 11.25 10.3314 11.1947 10.1035 11.084C9.87565 10.9733 9.67383 10.8236 9.49805 10.6348C9.32227 10.446 9.16602 10.2344 9.0293 10C8.89258 9.76562 8.76237 9.53125 8.63867 9.29688C8.33919 9.77214 8.11784 10.2832 7.97461 10.8301C7.83138 11.377 7.75651 11.9336 7.75 12.5C7.75 13.3659 7.91276 14.1764 8.23828 14.9316C8.5638 15.6868 9.00977 16.3509 9.57617 16.9238C10.1426 17.4967 10.8034 17.9427 11.5586 18.2617C12.3138 18.5807 13.1276 18.7435 14 18.75Z" fill="white"/>
</g>
<defs>
<filter id="filter0_d_171_609" x="0" y="0" width="28" height="28" filterUnits="userSpaceOnUse" color-interpolation-filters="sRGB">
<feFlood flood-opacity="0" result="BackgroundImageFix"/>
<feColorMatrix in="SourceAlpha" type="matrix" values="0 0 0 0 0 0 0 0 0 0 0 0 0 0 0 0 0 0 127 0" result="hardAlpha"/>
<feOffset dy="4"/>
<feGaussianBlur stdDeviation="2"/>
<feComposite in2="hardAlpha" operator="out"/>
<feColorMatrix type="matrix" values="0 0 0 0 0 0 0 0 0 0 0 0 0 0 0 0 0 0 0.25 0"/>
<feBlend mode="normal" in2="BackgroundImageFix" result="effect1_dropShadow_171_609"/>
<feBlend mode="normal" in="SourceGraphic" in2="effect1_dropShadow_171_609" result="shape"/>
</filter>
</defs>
</svg>
