<svg width="19" height="24" viewBox="0 0 19 24" fill="none" xmlns="http://www.w3.org/2000/svg">
<path d="M1.16699 8.625C1.16699 4.97161 1.16699 3.14492 2.08228 2.00996C2.99757 0.875 4.47071 0.875 7.41699 0.875H11.5837C14.5299 0.875 16.0031 0.875 16.9184 2.00996C17.8337 3.14492 17.8337 4.97161 17.8337 8.625V17.444C17.8337 20.9099 17.8337 22.6429 16.9542 23.1729C16.0747 23.7029 14.9758 22.6323 12.778 20.491L12.0746 19.8057C10.8388 18.6016 10.2209 17.9996 9.50033 17.9996C8.77978 17.9996 8.16187 18.6017 6.92607 19.8057L6.22268 20.491C4.02485 22.6323 2.92594 23.7029 2.04646 23.1729C1.16699 22.6429 1.16699 20.9099 1.16699 17.444V8.625Z" stroke="#222222"/>
</svg>
