<svg width="16" height="24" viewBox="0 0 16 24" fill="none" xmlns="http://www.w3.org/2000/svg">
<path d="M10.5 1.6132C10.5 2.90656 10.7148 4.09877 11.1445 5.18982C11.5742 6.28087 12.1927 7.28521 13 8.20285C13.8073 9.12048 14.4258 10.1248 14.8555 11.2159C15.2852 12.3069 15.5 13.4991 15.5 14.7925C15.5 15.5584 15.4121 16.2954 15.2363 17.0035C15.0605 17.7116 14.8066 18.3727 14.4746 18.9869C14.1426 19.601 13.752 20.1646 13.3027 20.6776C12.8535 21.1907 12.349 21.6242 11.7891 21.9782C11.2292 22.3323 10.6302 22.6105 9.99219 22.8128C9.35417 23.0151 8.6901 23.1162 8 23.1162C7.3099 23.1162 6.64583 23.0187 6.00781 22.8236C5.36979 22.6285 4.77409 22.3467 4.2207 21.9782C3.66732 21.6097 3.15951 21.1762 2.69727 20.6776C2.23503 20.1791 1.8444 19.6191 1.52539 18.9977C1.20638 18.3763 0.955729 17.7116 0.773438 17.0035C0.591146 16.2954 0.5 15.5584 0.5 14.7925C0.5 14.1855 0.558594 13.5894 0.675781 13.0042C0.792969 12.4189 0.96224 11.8589 1.18359 11.3243C1.40495 10.7896 1.67839 10.2802 2.00391 9.79606C2.32943 9.31196 2.69727 8.87481 3.10742 8.48464C3.15299 8.75921 3.21484 9.041 3.29297 9.33002C3.37109 9.61904 3.46224 9.90806 3.56641 10.1971C3.67057 10.4861 3.79427 10.7607 3.9375 11.0208C4.08073 11.2809 4.23047 11.523 4.38672 11.7469C4.51693 11.9276 4.6862 12.0179 4.89453 12.0179C5.07031 12.0179 5.2168 11.9493 5.33398 11.812C5.45117 11.6747 5.51302 11.5085 5.51953 11.3134C5.51953 11.2339 5.50977 11.1617 5.49023 11.0967C5.4707 11.0316 5.43815 10.9666 5.39258 10.9016C5.21029 10.6053 5.05078 10.3127 4.91406 10.0237C4.77734 9.73465 4.6569 9.4384 4.55273 9.13493C4.44857 8.83146 4.3737 8.51715 4.32812 8.19201C4.28255 7.86686 4.25651 7.52365 4.25 7.16237C4.25 6.30254 4.39648 5.49329 4.68945 4.73461C4.98242 3.97594 5.38607 3.3148 5.90039 2.75122C6.41471 2.18763 7.01042 1.74326 7.6875 1.41811C8.36458 1.09297 9.09375 0.926781 9.875 0.919556H10.5V1.6132ZM8 21.729C8.86589 21.729 9.67643 21.5483 10.4316 21.187C11.1868 20.8258 11.8509 20.3308 12.4238 19.7022C12.9967 19.0736 13.4427 18.3402 13.7617 17.502C14.0807 16.6639 14.2435 15.7607 14.25 14.7925C14.25 13.7014 14.0677 12.6863 13.7031 11.7469C13.3385 10.8076 12.8112 9.95503 12.1211 9.18912C11.2747 8.24259 10.6107 7.1985 10.1289 6.05688C9.64714 4.91525 9.36068 3.67969 9.26953 2.3502C8.72917 2.42968 8.23112 2.61032 7.77539 2.89211C7.31966 3.17391 6.91927 3.53157 6.57422 3.9651C6.22917 4.39863 5.96549 4.88635 5.7832 5.42826C5.60091 5.97017 5.50651 6.54821 5.5 7.16237C5.5 7.72596 5.57487 8.23536 5.72461 8.69057C5.87435 9.14577 6.0957 9.60098 6.38867 10.0562C6.51237 10.244 6.60677 10.4391 6.67188 10.6414C6.73698 10.8438 6.77279 11.0677 6.7793 11.3134C6.7793 11.6024 6.73047 11.8734 6.63281 12.1263C6.53516 12.3792 6.39844 12.5996 6.22266 12.7874C6.04688 12.9753 5.84831 13.127 5.62695 13.2426C5.4056 13.3582 5.16146 13.4124 4.89453 13.4052C4.59505 13.4052 4.33138 13.3438 4.10352 13.2209C3.87565 13.0981 3.67383 12.9319 3.49805 12.7224C3.32227 12.5128 3.16602 12.278 3.0293 12.0179C2.89258 11.7578 2.76237 11.4977 2.63867 11.2375C2.33919 11.765 2.11784 12.3322 1.97461 12.9392C1.83138 13.5461 1.75651 14.1639 1.75 14.7925C1.75 15.7535 1.91276 16.6531 2.23828 17.4912C2.5638 18.3294 3.00977 19.0664 3.57617 19.7022C4.14258 20.338 4.80339 20.833 5.55859 21.187C6.3138 21.5411 7.1276 21.7217 8 21.729Z" fill="#FFF7F7"/>
</svg>
